HIERARCHY
ROOT Hips
{
	OFFSET 0.000000 0.000000 0.000000
	CHANNELS 6 Xposition Yposition Zposition Zrotation Yrotation Xrotation 
	JOINT LHipJoint
	{
		OFFSET 0.000000 0.000000 0.000000
		CHANNELS 3 Zrotation Yrotation Xrotation
		JOINT LeftUpLeg
		{
			OFFSET 8.178360 -10.767780 5.035740
			CHANNELS 3 Zrotation Yrotation Xrotation
			JOINT LeftLeg
			{
				OFFSET 14.688660 -40.356780 0.000000
				CHANNELS 3 Zrotation Yrotation Xrotation
				JOINT LeftFoot
				{
					OFFSET 15.373200 -42.237540 0.000000
					CHANNELS 3 Zrotation Yrotation Xrotation
					JOINT LeftToeBase
					{
						OFFSET 0.945840 -2.598660 13.935300
						CHANNELS 3 Zrotation Yrotation Xrotation
						End Site
						{
							OFFSET 0.000000 0.000000 0.000000
						}
					}
				}
			}
		}
	}
	JOINT RHipJoint
	{
		OFFSET 0.000000 0.000000 0.000000
		CHANNELS 3 Zrotation Yrotation Xrotation
		JOINT RightUpLeg
		{
			OFFSET -7.833120 -10.767780 5.035740
			CHANNELS 3 Zrotation Yrotation Xrotation
			JOINT RightLeg
			{
				OFFSET -15.255180 -41.913300 0.000000
				CHANNELS 3 Zrotation Yrotation Xrotation
				JOINT RightFoot
				{
					OFFSET -15.409560 -42.337380 0.000000
					CHANNELS 3 Zrotation Yrotation Xrotation
					JOINT RightToeBase
					{
						OFFSET -0.988380 -2.715540 14.178900
						CHANNELS 3 Zrotation Yrotation Xrotation
						End Site
						{
							OFFSET 0.000000 0.000000 0.000000
						}
					}
				}
			}
		}
	}
	JOINT LowerBack
	{
		OFFSET 0.000000 0.000000 0.000000
		CHANNELS 3 Zrotation Yrotation Xrotation
		JOINT Spine
		{
			OFFSET 0.169620 12.213540 -1.160280
			CHANNELS 3 Zrotation Yrotation Xrotation
			JOINT Spine1
			{
				OFFSET 0.340320 12.293100 -0.256500
				CHANNELS 3 Zrotation Yrotation Xrotation
				JOINT Neck
				{
					OFFSET 0.000000 0.000000 0.000000
					CHANNELS 3 Zrotation Yrotation Xrotation
					JOINT Neck1
					{
						OFFSET -0.325020 10.477440 1.032120
						CHANNELS 3 Zrotation Yrotation Xrotation
						JOINT Head
						{
							OFFSET 0.624420 10.568160 -0.743820
							CHANNELS 3 Zrotation Yrotation Xrotation
							End Site
							{
								OFFSET 0.000000 0.000000 0.000000
							}
						}
					}
				}
				JOINT LeftShoulder
				{
					OFFSET 0.000000 0.000000 0.000000
					CHANNELS 3 Zrotation Yrotation Xrotation
					JOINT LeftArm
					{
						OFFSET 20.174460 7.205340 -1.867260
						CHANNELS 3 Zrotation Yrotation Xrotation
						JOINT LeftForeArm
						{
							OFFSET 29.898000 -0.000000 -0.000000
							CHANNELS 3 Zrotation Yrotation Xrotation
							JOINT LeftHand
							{
								OFFSET 20.901360 -0.000000 -0.000000
								CHANNELS 3 Zrotation Yrotation Xrotation
								JOINT LeftFingerBase
								{
									OFFSET 0.000000 0.000000 0.000000
									CHANNELS 3 Zrotation Yrotation Xrotation
									JOINT LeftHandIndex1
									{
										OFFSET 4.291560 -0.000000 -0.000000
										CHANNELS 3 Zrotation Yrotation Xrotation
										End Site
										{
											OFFSET 0.000000 0.000000 0.000000
										}
									}
								}
								JOINT LThumb
								{
									OFFSET 0.000000 0.000000 0.000000
									CHANNELS 3 Zrotation Yrotation Xrotation
									End Site
									{
										OFFSET 0.000000 0.000000 0.000000
									}
								}
							}
						}
					}
				}
				JOINT RightShoulder
				{
					OFFSET 0.000000 0.000000 0.000000
					CHANNELS 3 Zrotation Yrotation Xrotation
					JOINT RightArm
					{
						OFFSET -18.819600 8.244300 -2.427900
						CHANNELS 3 Zrotation Yrotation Xrotation
						JOINT RightForeArm
						{
							OFFSET -31.451400 -0.000000 -0.000000
							CHANNELS 3 Zrotation Yrotation Xrotation
							JOINT RightHand
							{
								OFFSET -20.665020 -0.000000 -0.000000
								CHANNELS 3 Zrotation Yrotation Xrotation
								JOINT RightFingerBase
								{
									OFFSET 0.000000 0.000000 0.000000
									CHANNELS 3 Zrotation Yrotation Xrotation
									JOINT RightHandIndex1
									{
										OFFSET -3.735180 -0.000000 -0.000000
										CHANNELS 3 Zrotation Yrotation Xrotation
										End Site
										{
											OFFSET 0.000000 0.000000 0.000000
										}
									}
								}
								JOINT RThumb
								{
									OFFSET 0.000000 0.000000 0.000000
									CHANNELS 3 Zrotation Yrotation Xrotation
									End Site
									{
										OFFSET 0.000000 0.000000 0.000000
									}
								}
							}
						}
					}
				}
			}
		}
	}
}
MOTION
Frames:	7
Frame Time:	0.0333333
64.029792 107.300922 -60.241332 -1.231577 0.975367 -0.373985 -2.196973 0.789556 1.250539 -12.121898 -7.947257 -20.114880 4.768050 13.984191 43.857308 0.631058 -5.373503 -1.167842 0.584200 -4.894000 -13.606500 1.073849 -1.141285 1.553659 25.759580 1.199731 -3.704053 -1.261564 -7.668335 23.689949 -0.541811 0.523376 -7.172803 -0.061200 -1.596000 4.390500 2.337434 0.972713 7.771122 1.688656 1.618717 1.559942 -0.917846 0.779716 -3.098070 -11.906331 -7.414941 -14.882658 7.852664 -8.412653 17.775183 4.446400 -4.111400 13.266000 -6.517143 -0.479146 -1.654889 -83.873551 4.681025 21.887346 15.775635 -22.440728 -3.738924 -1.505760 -2.365968 5.427210 21.751614 22.815790 10.293400 -7.125000 0.000000 0.000000 -7.318600 56.988600 -2.157800 5.265556 1.580116 -0.958069 84.670994 -1.646669 19.026930 -15.460079 22.920471 -3.362701 0.350213 -0.178099 6.200625 -14.294122 8.946860 -2.363200 7.125000 0.000000 0.000000 8.793900 -20.653000 5.187600 
63.932358 107.380914 -59.342778 -1.244121 0.695493 -0.039069 -2.233338 0.672458 1.113584 -11.971842 -7.875647 -21.500064 4.137643 13.460850 41.561404 0.518676 -4.170749 -0.819232 0.498500 -4.526500 -12.562800 1.107775 -1.128961 1.598540 25.770161 1.106962 -3.096926 -1.126648 -7.350428 22.773821 -0.551221 0.642047 -6.926820 -0.062500 -1.613100 4.437700 2.517144 1.243381 7.519597 1.593293 1.971909 1.552472 -1.212500 0.978183 -2.947957 -11.723089 -7.324787 -14.782084 7.572938 -8.352843 18.048247 4.320800 -4.107000 13.323000 -6.506518 -0.448865 -1.667289 -83.666732 5.408041 21.351314 15.714484 -22.404626 -3.716727 -1.472045 -2.290498 5.619437 21.408733 21.849528 9.729600 -7.125000 0.000000 0.000000 -7.293600 55.840500 -1.947300 5.255487 1.533896 -0.962274 84.915729 -1.270985 18.714034 -15.589218 23.119832 -3.421015 0.353026 -0.222255 7.766884 -14.879108 9.756610 -2.690000 7.125000 0.000000 0.000000 8.347100 -19.761800 5.087100 
63.841542 107.404968 -58.340178 -1.374042 0.665021 0.042063 -2.311939 0.584242 1.014001 -11.675871 -7.808607 -22.389073 3.262277 12.623348 38.215035 0.355228 -2.615001 -0.287035 0.476600 -4.427400 -12.282300 1.148137 -1.125264 1.643614 25.916703 0.670550 -1.998419 -0.941391 -6.896951 21.464043 -0.545525 0.656900 -6.805528 -0.049100 -1.430000 3.932700 2.822131 1.325576 7.614329 1.570089 2.105556 1.614309 -1.445680 1.060978 -2.879154 -11.861375 -7.361974 -14.723973 7.463724 -8.352987 18.022115 4.305800 -4.137600 13.301100 -6.522513 -0.406736 -1.673402 -83.742288 5.942358 20.192409 15.492383 -22.123776 -3.596297 -1.532992 -2.331658 6.191629 21.748448 22.626749 10.215200 -7.125000 0.000000 0.000000 -7.239200 56.778700 -2.097400 5.239813 1.516845 -0.960183 84.882956 -1.095205 19.894370 -16.017323 23.710163 -3.612360 0.366061 -0.202693 6.663067 -15.075533 9.648042 -2.694300 7.125000 0.000000 0.000000 8.204900 -19.876100 4.977400 
63.762150 107.435040 -57.277440 -1.366545 0.844322 0.238231 -2.442964 0.494450 0.911804 -11.437774 -8.077486 -23.034327 2.211319 11.454924 33.924744 0.137761 -0.752461 -0.086887 0.483600 -4.459400 -12.372900 1.211089 -1.115666 1.688818 25.902090 0.257106 -1.025726 -0.772833 -6.468748 20.230485 -0.510226 0.496460 -6.781481 -0.038500 -1.267000 3.483900 2.972348 1.408265 7.690874 1.481537 2.226590 1.671141 -1.703515 1.136320 -2.801964 -12.010205 -7.449848 -14.755715 7.691724 -8.430828 17.828881 4.419600 -4.156800 13.261400 -6.561962 -0.348317 -1.670191 -83.585945 6.317560 19.232695 15.028654 -21.489894 -3.370411 -1.524492 -2.237620 6.546128 21.330424 21.504851 9.563400 -7.125000 0.000000 0.000000 -7.209400 55.441300 -1.854700 5.213956 1.528727 -0.955243 85.011579 -0.904343 20.612087 -16.721552 24.678152 -3.938977 0.364031 -0.175377 5.750970 -14.927668 9.460228 -2.609800 7.125000 0.000000 0.000000 8.319700 -20.098300 5.006600 
63.718248 107.396550 -56.112450 -1.544286 0.920385 0.387891 -2.573233 0.400829 0.822845 -10.955317 -8.094076 -23.595443 1.182732 10.077424 29.264520 0.092974 -0.276857 1.169198 0.605000 -4.978900 -13.848400 1.262727 -1.101084 1.718516 26.077621 -0.132109 0.057526 -0.614585 -6.036452 18.999983 -0.492190 0.413230 -6.797906 -0.055700 -1.522700 4.188200 3.221159 1.453079 7.729035 1.475242 2.303126 1.885039 -1.871341 1.194221 -2.426259 -11.898792 -7.494194 -15.035710 7.558907 -8.431686 17.354851 4.321000 -4.147100 13.091300 -6.587731 -0.336032 -1.655524 -83.747781 6.209139 17.008079 14.831582 -21.212406 -3.257632 -1.545379 -2.241189 9.107951 20.440752 22.465564 9.475100 -7.125000 0.000000 0.000000 -8.665000 56.295700 -2.413000 5.208058 1.524696 -0.941681 84.889670 -0.264208 22.206392 -17.368951 25.545487 -4.249540 0.370682 -0.131135 4.186448 -14.837868 8.937543 -2.444400 7.125000 0.000000 0.000000 8.397600 -20.673000 4.944800 
63.708024 107.355048 -54.789282 -1.536745 0.794279 0.579348 -2.716183 0.328785 0.747187 -10.537704 -8.519737 -23.841748 0.303035 8.641256 24.747225 0.108549 -0.171474 2.428320 0.353400 -3.819400 -10.569200 1.319911 -1.098143 1.761427 25.980618 -0.562484 1.058031 -0.482085 -5.648313 17.900746 -0.496772 0.444349 -6.781822 -0.020400 -0.922200 2.534900 3.218205 1.697415 7.941237 1.407055 2.629890 1.888954 -2.047389 1.368636 -2.520156 -11.833271 -7.607659 -15.114993 7.555359 -8.594980 17.313956 4.281600 -4.208300 13.116000 -6.644852 -0.315013 -1.639141 -83.556010 6.269209 16.595586 14.045726 -20.079835 -2.890734 -1.616917 -2.163519 8.650248 21.000482 21.479309 9.400700 -7.125000 0.000000 0.000000 -7.525100 55.330200 -1.916300 5.197812 1.533561 -0.948854 84.860283 -0.153749 23.004716 -18.116799 26.523138 -4.612249 0.391771 -0.116147 3.512971 -15.473390 8.906911 -2.542500 7.125000 0.000000 0.000000 7.929700 -20.684600 4.661800 
63.734484 107.172210 -53.398758 -1.886697 0.785690 0.758004 -2.800666 0.245887 0.658721 -9.929321 -8.476977 -24.359814 -0.331631 7.407802 20.996379 0.192858 -0.450595 2.932974 0.986200 -6.320900 -17.718300 1.341669 -1.080268 1.778659 26.376840 -0.721604 2.176045 -0.372955 -5.314111 16.972674 -0.450532 0.189019 -6.942417 -0.016500 -0.828600 2.277400 3.520964 1.750739 7.869168 1.498932 2.719508 2.153154 -2.063824 1.426075 -1.993694 -12.089329 -7.711151 -15.515314 7.748089 -8.594093 16.993670 4.395200 -4.197200 13.080400 -6.728419 -0.302285 -1.599274 -83.674441 5.658752 15.135035 13.330674 -18.992310 -2.560887 -1.696063 -2.037939 9.569015 21.204376 20.480542 9.115500 -7.125000 0.000000 0.000000 -6.840300 54.248300 -1.560200 5.221898 1.561632 -0.916036 84.506575 0.964510 23.857263 -18.488908 27.018790 -4.805479 0.381362 -0.098377 3.197343 -15.114075 8.732115 -2.428300 7.125000 0.000000 0.000000 8.200600 -20.897600 4.784400 
